<?xml version="1.0" encoding="UTF-8" standalone="no"?>
<!-- Created with Inkscape (http://www.inkscape.org/) -->

<svg
   xmlns:dc="http://purl.org/dc/elements/1.1/"
   xmlns:cc="http://creativecommons.org/ns#"
   xmlns:rdf="http://www.w3.org/1999/02/22-rdf-syntax-ns#"
   xmlns:svg="http://www.w3.org/2000/svg"
   xmlns="http://www.w3.org/2000/svg"
   xmlns:sodipodi="http://sodipodi.sourceforge.net/DTD/sodipodi-0.dtd"
   xmlns:inkscape="http://www.inkscape.org/namespaces/inkscape"
   width="1010"
   height="124"
   id="svg3029"
   version="1.1"
   inkscape:version="0.48.1 "
   sodipodi:docname="banner.svg"
   inkscape:export-filename="C:\Users\pvarin\Projects\PatrickVarinHomepage\patrickvarin\img\GeneralPictures\banner.png"
   inkscape:export-xdpi="90"
   inkscape:export-ydpi="90">
  <defs
     id="defs3031">
    <inkscape:path-effect
       effect="spiro"
       id="path-effect3088"
       is_visible="true" />
    <inkscape:path-effect
       effect="spiro"
       id="path-effect3079"
       is_visible="true" />
    <inkscape:path-effect
       effect="spiro"
       id="path-effect3075"
       is_visible="true" />
    <inkscape:path-effect
       effect="spiro"
       id="path-effect3071"
       is_visible="true" />
    <inkscape:path-effect
       effect="spiro"
       id="path-effect3067"
       is_visible="true" />
    <inkscape:path-effect
       effect="spiro"
       id="path-effect3063"
       is_visible="true" />
    <inkscape:path-effect
       effect="spiro"
       id="path-effect3059"
       is_visible="true" />
    <inkscape:path-effect
       effect="spiro"
       id="path-effect3055"
       is_visible="true" />
    <inkscape:path-effect
       effect="spiro"
       id="path-effect3051"
       is_visible="true" />
    <inkscape:path-effect
       effect="spiro"
       id="path-effect3047"
       is_visible="true" />
    <inkscape:path-effect
       effect="spiro"
       id="path-effect3043"
       is_visible="true" />
    <inkscape:path-effect
       effect="spiro"
       id="path-effect3039"
       is_visible="true" />
    <filter
       inkscape:collect="always"
       id="filter3886">
      <feGaussianBlur
         inkscape:collect="always"
         stdDeviation="2.5712386"
         id="feGaussianBlur3888" />
    </filter>
  </defs>
  <sodipodi:namedview
     id="base"
     pagecolor="#ffffff"
     bordercolor="#666666"
     borderopacity="1.0"
     inkscape:pageopacity="0.0"
     inkscape:pageshadow="2"
     inkscape:zoom="0.49497475"
     inkscape:cx="108.96811"
     inkscape:cy="206.81322"
     inkscape:document-units="px"
     inkscape:current-layer="layer2"
     showgrid="false"
     inkscape:window-width="1440"
     inkscape:window-height="838"
     inkscape:window-x="-8"
     inkscape:window-y="-8"
     inkscape:window-maximized="1" />
  <metadata
     id="metadata3034">
    <rdf:RDF>
      <cc:Work
         rdf:about="">
        <dc:format>image/svg+xml</dc:format>
        <dc:type
           rdf:resource="http://purl.org/dc/dcmitype/StillImage" />
        <dc:title></dc:title>
      </cc:Work>
    </rdf:RDF>
  </metadata>
  <g
     inkscape:label="Layer 1"
     inkscape:groupmode="layer"
     id="layer1"
     transform="translate(0,-928.36218)"
     sodipodi:insensitive="true"
     style="display:none">
    <path
       style="fill:none;stroke:#000000;stroke-width:1px;stroke-linecap:butt;stroke-linejoin:miter;stroke-opacity:1"
       d="M 75.714286,-2.4285716 C 71.887776,0.72580174 67.825074,3.5935911 63.571429,6.142857 62.765056,6.6261267 61.949635,7.0994373 61.200802,7.6677992 60.451969,8.2361611 59.766568,8.9064703 59.285714,9.7142856 59.0133,10.17193 58.81028,10.666834 58.571429,11.142857 c -0.385971,0.769229 -0.866965,1.49072 -1.428572,2.142857"
       id="path3037"
       inkscape:path-effect="#path-effect3039"
       inkscape:original-d="M 75.714286,-2.4285716 C 71.666667,0.4285713 67.603023,3.2631467 63.571429,6.142857 62.532557,6.884908 60.222748,8.4649075 59.285714,9.7142856 58.966276,10.140203 58.866749,10.699876 58.571429,11.142857 56.389934,14.415099 59.732351,8.1067275 57.142857,13.285714"
       inkscape:connector-curvature="0"
       transform="translate(0,928.36218)" />
    <path
       style="fill:none;stroke:#000000;stroke-width:1px;stroke-linecap:butt;stroke-linejoin:miter;stroke-opacity:1"
       d="M 80.714286,10.428571 C 77.661061,9.3632973 74.300901,9.1948956 71.156466,9.9495601 68.012031,10.704225 65.09431,12.379318 62.857143,14.714286 c -0.466271,0.486655 -0.905807,1.003178 -1.428572,1.428571 -0.463458,0.377133 -0.984266,0.676011 -1.486585,0.999583 -0.502319,0.323572 -0.994336,0.679075 -1.370557,1.143274 -0.541907,0.668628 -0.820351,1.533929 -1.428572,2.142857 C 56.534628,21.037508 55.66989,21.316777 55,21.857143 c -0.545552,0.440068 -0.942563,1.038487 -1.262607,1.662072 -0.320044,0.623585 -0.571296,1.280202 -0.88025,1.909356 -0.379663,0.773146 -0.848385,1.506239 -1.428572,2.142857 -0.908967,0.997378 -2.083225,1.751686 -2.857142,2.857143 -0.493684,0.705175 -0.814112,1.540001 -1.428572,2.142857 -0.240951,0.236401 -0.525083,0.434742 -0.714286,0.714286 -0.150233,0.221966 -0.231426,0.481951 -0.323174,0.733786 -0.09175,0.251836 -0.200534,0.506321 -0.391111,0.694786 -0.121866,0.120515 -0.271586,0.208296 -0.40704,0.313308 -0.06773,0.05251 -0.132311,0.109748 -0.186541,0.176102 -0.05423,0.06636 -0.098,0.142242 -0.120705,0.224875 -0.03165,0.115189 -0.02261,0.237159 -0.01397,0.356304 C 44.99467,35.904021 45,36.023399 45,36.142857 l 0,0.714286 c 0,0.119187 0.0031,0.238347 0.0081,0.357427 0.005,0.119081 0.01041,0.239123 -0.0081,0.356858 -0.02802,0.177807 -0.113661,0.346066 -0.240941,0.473345 -0.127279,0.12728 -0.295538,0.212926 -0.473345,0.240941"
       id="path3041"
       inkscape:path-effect="#path-effect3043"
       inkscape:original-d="m 80.714286,10.428571 c -1.418164,0.283633 -13.506209,1.799467 -17.857143,4.285715 -0.584705,0.334117 -0.889823,1.02451 -1.428572,1.428571 -2.332863,1.749647 -0.670166,-0.590864 -2.857142,2.142857 -0.536279,0.670348 -0.821546,1.535831 -1.428572,2.142857 -0.607026,0.607026 -1.535831,0.821546 -2.142857,1.428572 -1.316372,1.316372 -1.297387,2.162312 -2.142857,3.571428 -0.441676,0.736128 -0.892293,1.472509 -1.428572,2.142857 -0.841383,1.051729 -2.015759,1.805415 -2.857142,2.857143 -0.536279,0.670349 -0.913493,1.456086 -1.428572,2.142857 -0.20203,0.269374 -0.527508,0.43412 -0.714286,0.714286 -0.29532,0.442981 -0.418964,0.98559 -0.714285,1.428572 -0.186778,0.280166 -0.563701,0.413116 -0.714286,0.714285 -0.106479,0.212959 0,0.476191 0,0.714286 0,0.238095 0,0.476191 0,0.714286 0,0.238095 0.168359,0.545927 0,0.714285 -0.952381,0.952381 -0.714286,-1.190476 -0.714286,0.714286"
       inkscape:connector-curvature="0"
       transform="translate(0,928.36218)" />
    <path
       style="fill:none;stroke:#000000;stroke-width:1px;stroke-linecap:butt;stroke-linejoin:miter;stroke-opacity:1"
       d="m 69.285714,20.428571 c -5.672171,0.310556 -11.183653,2.935071 -15,7.142857 -1.249522,1.377685 -2.319353,2.91035 -3.571428,4.285715 -0.453513,0.49817 -0.930402,0.975058 -1.428572,1.428571 -0.355227,1.361759 -1.108471,2.617165 -2.142857,3.571429 -0.496741,0.458264 -1.065255,0.858695 -1.428571,1.428571 -0.286514,0.449409 -0.427837,0.979121 -0.714286,1.428572 -0.234043,0.367223 -0.556513,0.667913 -0.840149,0.998336 -0.283636,0.330423 -0.537432,0.712053 -0.588422,1.144521 -0.02803,0.237759 0.0069,0.477745 0.03136,0.715899 0.02445,0.238153 0.0378,0.483472 -0.03136,0.712672 -0.04941,0.163741 -0.139638,0.313277 -0.249686,0.444201 -0.110049,0.130924 -0.23976,0.244067 -0.375056,0.348693 -0.270594,0.209252 -0.567553,0.388331 -0.80383,0.635678 -0.370492,0.387849 -0.560824,0.909327 -0.734057,1.416951 -0.173233,0.507623 -0.346885,1.031724 -0.694514,1.440191 C 40.495905,47.828027 40.21722,48.028131 40,48.285714 c -0.346026,0.410323 -0.5138,0.937244 -0.684699,1.446059 -0.170898,0.508814 -0.363874,1.032006 -0.743872,1.411084 -0.119822,0.119533 -0.255556,0.221729 -0.383276,0.332783 -0.12772,0.111055 -0.249247,0.233313 -0.33101,0.381503 -0.117684,0.213296 -0.144719,0.466432 -0.126538,0.70936 0.01818,0.242928 0.07872,0.480344 0.126538,0.719211 0.04734,0.236468 0.08139,0.487275 0,0.714286 -0.05785,0.161347 -0.170508,0.298194 -0.299115,0.411505 -0.128608,0.113312 -0.273898,0.205716 -0.415171,0.302781 -0.36808,0.252898 -0.715864,0.5439 -0.980879,0.903355 -0.265014,0.359454 -0.443788,0.792932 -0.447692,1.239502 -0.0021,0.238643 0.0449,0.479896 0,0.714286 -0.05054,0.263816 -0.211742,0.490818 -0.366217,0.710569 C 35.193595,58.50175 35.037534,58.734022 35,59 c -0.03333,0.236186 0.03054,0.477722 0,0.714286 -0.03436,0.266213 -0.184302,0.50176 -0.336514,0.722853 -0.152212,0.221092 -0.313922,0.445001 -0.377772,0.705718 -0.05698,0.232665 -0.03136,0.476807 0,0.714286 0.0629,0.476303 0.146184,0.970914 0,1.428571 -0.08132,0.25459 -0.229343,0.481608 -0.371353,0.708021 -0.142009,0.226412 -0.281634,0.460413 -0.342932,0.720551 -0.0548,0.232541 -0.04433,0.475132 -0.02516,0.713271 0.01917,0.238139 0.04675,0.477368 0.02516,0.7153 -0.03417,0.376615 -0.189327,0.730305 -0.345918,1.074523 -0.156591,0.344218 -0.318705,0.693447 -0.368368,1.068334 -0.06264,0.472829 0.05805,0.955158 0,1.428572 -0.046,0.37513 -0.201829,0.726708 -0.356142,1.071708 -0.154313,0.345 -0.310768,0.696191 -0.358144,1.071149 -0.05978,0.473159 0.05804,0.955194 0,1.428571 -0.04598,0.375062 -0.200049,0.727141 -0.353501,1.07245 -0.153453,0.345309 -0.309785,0.695994 -0.360785,1.070407 -0.06433,0.472248 0,0.951963 0,1.428572 l 0,2.142857 0,1.428571 c 0,0.23976 -0.0152,0.479193 -0.03978,0.717689 -0.01229,0.119248 -0.0241,0.238861 -0.02241,0.358729 0.0017,0.119868 0.01754,0.240903 0.0622,0.352154 0.0635,0.158194 0.182043,0.288398 0.31173,0.399029 0.129687,0.110631 0.272429,0.205143 0.402556,0.315257 0.302213,0.255733 0.532379,0.595707 0.657572,0.971285 0.125193,0.375578 0.145044,0.785658 0.05671,1.171572"
       id="path3045"
       inkscape:path-effect="#path-effect3047"
       inkscape:original-d="m 69.285714,20.428571 c -5,2.380953 -10.168101,4.436994 -15,7.142857 -4.265196,2.38851 -1.847031,1.986519 -3.571428,4.285715 -0.404061,0.538748 -1.00788,0.902707 -1.428572,1.428571 -1.296254,0.835122 -1.309864,2.460771 -2.142857,3.571429 -0.404061,0.538748 -1.02451,0.889823 -1.428571,1.428571 -0.319439,0.425918 -0.44037,0.972045 -0.714286,1.428572 -0.441676,0.736127 -1.109746,1.345792 -1.428571,2.142857 -0.176853,0.442132 0.212958,1.002653 0,1.428571 -0.30117,0.602339 -1.024511,0.889824 -1.428572,1.428572 -0.02665,0.03553 -1.39326,2.804175 -1.428571,2.857142 -0.186778,0.280166 -0.527509,0.43412 -0.714286,0.714286 -0.590642,0.885963 -0.83793,1.971181 -1.428571,2.857143 -0.186778,0.280166 -0.607807,0.394847 -0.714286,0.714286 -0.150585,0.451754 0,0.952381 0,1.428571 0,0.238095 0.106479,0.501327 0,0.714286 -0.150585,0.301169 -0.476191,0.47619 -0.714286,0.714286 -0.817251,0.817251 -0.996136,0.845551 -1.428571,2.142857 -0.07529,0.225877 0.07529,0.488409 0,0.714286 C 35.545927,58.076505 35.168359,58.494924 35,59 c -0.07529,0.225877 0.07529,0.488409 0,0.714286 -0.168359,0.505076 -0.545927,0.923495 -0.714286,1.428571 -0.07529,0.225877 0,0.476191 0,0.714286 0,0.47619 0.115493,0.966599 0,1.428571 -0.129125,0.516501 -0.58516,0.912071 -0.714285,1.428572 -0.115494,0.461972 0.09339,0.961628 0,1.428571 -0.147661,0.738302 -0.566626,1.404555 -0.714286,2.142857 -0.09339,0.466943 0.09339,0.961628 0,1.428572 -0.147661,0.738302 -0.566625,1.404555 -0.714286,2.142857 -0.09339,0.466943 0.09339,0.961628 0,1.428571 -0.14766,0.738302 -0.566625,1.404555 -0.714286,2.142857 -0.09339,0.466944 0,0.952381 0,1.428572 0,0.714286 0,1.428571 0,2.142857 0,0.47619 0,0.952381 0,1.428571 0,0.476191 -0.150584,0.976818 0,1.428572 0.10648,0.319438 0.607807,0.394847 0.714286,0.714286 0.882645,2.647933 -0.960841,0.46773 0.714286,2.142857"
       inkscape:connector-curvature="0"
       transform="translate(0,928.36218)" />
    <path
       style="fill:none;stroke:#000000;stroke-width:1px;stroke-linecap:butt;stroke-linejoin:miter;stroke-opacity:1"
       d="m 50,54 c -4.987354,4.412524 -9.13117,9.77511 -12.142857,15.714286 -0.240784,0.474837 -0.47619,0.95238 -0.714286,1.428571 L 36.428571,72.571429 35,75.428571 c -0.119438,0.238876 -0.249188,0.472404 -0.385174,0.702263 -0.135986,0.229858 -0.275463,0.464682 -0.329112,0.726309 -0.04804,0.234283 -0.02208,0.476612 0.003,0.714446 0.02513,0.237835 0.04899,0.480696 -0.003,0.714125 -0.05824,0.261282 -0.207206,0.491842 -0.354299,0.715503 -0.147093,0.223661 -0.297703,0.45272 -0.359986,0.713069 -0.05554,0.232174 -0.0396,0.474755 -0.02446,0.713 0.01513,0.238244 0.02446,0.476846 0.02446,0.715571 l 0,1.428572 c 0,0.238711 0.0092,0.477302 0.0242,0.715544 0.01497,0.238241 0.03075,0.480725 -0.0242,0.713027 -0.0616,0.260441 -0.210663,0.490303 -0.357143,0.714286 -0.14648,0.223982 -0.295543,0.453844 -0.357143,0.714285 -0.05495,0.232302 -0.03917,0.474786 -0.0242,0.713028 0.01497,0.238242 0.0242,0.476833 0.0242,0.715544 l 0,0.714286 0,1.428571 c 0,0.119729 -0.0069,0.239324 -0.01799,0.358535 -0.01112,0.119211 -0.02253,0.24309 0.01799,0.355751 0.02905,0.08076 0.08418,0.150098 0.148065,0.207415 0.06388,0.05732 0.136664,0.103662 0.209078,0.149727 0.07241,0.04607 0.145199,0.09241 0.209078,0.149728 0.06388,0.05732 0.119015,0.126657 0.148065,0.207415 0.04053,0.112661 0.02911,0.23654 0.01799,0.355751 -0.01112,0.119211 -0.01799,0.238806 -0.01799,0.358535 l 0,0.714286 c 0,0.119746 -0.007,0.239355 -0.01822,0.35857 -0.01126,0.119216 -0.02281,0.243217 0.01822,0.355716 0.02943,0.08071 0.08526,0.149688 0.149729,0.206479 0.06447,0.05679 0.137756,0.102497 0.210497,0.148211 0.07274,0.04571 0.145717,0.09202 0.20929,0.149813 0.06357,0.05779 0.117865,0.12819 0.144769,0.209782 0.03766,0.11422 0.01889,0.238412 -1.85e-4,0.357158 -0.01908,0.118746 -0.03772,0.242987 1.85e-4,0.357128 0.02471,0.07442 0.07335,0.140682 0.136931,0.186567 0.06358,0.04588 0.1418,0.07116 0.220212,0.07116 0.07841,0 0.156628,-0.02527 0.220212,-0.07116 C 34.926654,94.140682 34.97529,94.074416 35,94 c 0.294214,0.171365 0.542921,0.420072 0.714286,0.714286 0.134628,0.23114 0.220821,0.486525 0.319637,0.735093 0.09882,0.248567 0.213889,0.496307 0.394648,0.693478 0.114448,0.124839 0.25196,0.225784 0.381679,0.33467 0.129718,0.108886 0.254561,0.22931 0.332607,0.379616 0.11403,0.219607 0.11403,0.494679 0,0.714286 0.06089,0.540091 0.318746,1.055805 0.714286,1.428571 0.1232,0.116106 0.258699,0.21836 0.385588,0.330422 0.126889,0.112062 0.246559,0.235837 0.328698,0.383864 0.118506,0.213566 0.151705,0.466044 0.136421,0.709814 -0.01528,0.24376 -0.07632,0.48203 -0.136421,0.71876 -0.03003,0.11829 -0.06003,0.23746 -0.06742,0.35928 -0.0074,0.12181 0.0091,0.24778 0.06742,0.355 0.04084,0.0751 0.100704,0.13849 0.16647,0.19314 0.06577,0.0546 0.137734,0.10124 0.208441,0.14933 0.07071,0.0481 0.140689,0.0981 0.20121,0.1585 0.06052,0.0604 0.11161,0.13204 0.138164,0.21332 0.03725,0.11404 0.02403,0.23774 0.0078,0.35661 -0.01622,0.11886 -0.03494,0.24081 -0.0078,0.35767 0.01944,0.0837 0.06193,0.16096 0.11581,0.22791 0.05388,0.0669 0.118999,0.1241 0.18743,0.17608 0.136863,0.10398 0.288979,0.1893 0.411046,0.3103 0.121881,0.12082 0.20844,0.27188 0.312563,0.4083 0.05206,0.0682 0.109016,0.13326 0.175511,0.18749 0.0665,0.0542 0.143011,0.0975 0.226212,0.1185 0.116171,0.0293 0.238345,0.0141 0.357204,-9.7e-4 0.118859,-0.0151 0.241236,-0.0296 0.357081,9.7e-4 0.134673,0.0355 0.248549,0.13047 0.327265,0.24537 0.07872,0.11491 0.125151,0.24898 0.157833,0.38437 0.03268,0.13539 0.05246,0.27359 0.08307,0.40946 0.0306,0.13588 0.07276,0.27097 0.146118,0.38937 0.08889,0.14348 0.217948,0.25685 0.344504,0.36854 0.126556,0.11168 0.250431,0.22639 0.369782,0.34574 l 0.714286,0.71429 c 0.120465,0.12047 0.250593,0.23071 0.386017,0.33407 0.06771,0.0517 0.135422,0.10399 0.194498,0.16536 0.05907,0.0614 0.109647,0.13316 0.13377,0.21485 0.03408,0.11541 0.01271,0.23892 -0.0067,0.35769 -0.0097,0.0594 -0.01884,0.11907 -0.02013,0.17922 -0.0013,0.0601 0.0055,0.12111 0.0268,0.17738 0.03066,0.081 0.09,0.14845 0.157576,0.20259 0.06757,0.0541 0.143719,0.0963 0.218465,0.14004 0.07475,0.0437 0.149132,0.0897 0.211316,0.14993 0.06218,0.0602 0.111961,0.13645 0.126929,0.22173 0.01076,0.0613 0.0032,0.12446 -0.01077,0.1851 -0.01398,0.0606 -0.0343,0.11962 -0.04956,0.17995 -0.01525,0.0603 -0.02545,0.12288 -0.01859,0.18472 0.0069,0.0618 0.03225,0.12334 0.07891,0.16451 0.04625,0.0408 0.109538,0.0584 0.171215,0.0592 0.06168,8.4e-4 0.122491,-0.0137 0.181827,-0.0306 0.05934,-0.0169 0.118267,-0.0362 0.179276,-0.0452 0.06101,-0.009 0.125151,-0.007 0.181968,0.0166 0.06158,0.026 0.11083,0.0774 0.13989,0.13763 0.02906,0.0602 0.03877,0.12869 0.03393,0.19537 -0.0097,0.13336 -0.07458,0.25573 -0.140851,0.37186 -0.06627,0.11614 -0.136568,0.23407 -0.158882,0.3659 -0.01116,0.0659 -0.0097,0.13468 0.01049,0.19842 0.02018,0.0637 0.05988,0.12216 0.115417,0.15939 0.05055,0.0339 0.111943,0.049 0.17275,0.0515 0.06081,0.002 0.121457,-0.007 0.181062,-0.0195 0.0596,-0.0123 0.118734,-0.0272 0.178998,-0.0357 0.06027,-0.008 0.122238,-0.0103 0.181475,0.004 0.08315,0.0196 0.156661,0.0691 0.218351,0.12823 0.06169,0.0591 0.113258,0.12778 0.164089,0.19643 0.101661,0.1373 0.211044,0.26883 0.331846,0.38963 L 48.571429,114 c 0.119774,0.11977 0.23231,0.2465 0.340047,0.37721 0.107737,0.13071 0.220186,0.26665 0.374238,0.33708 0.110708,0.0506 0.236052,0.0621 0.357412,0.0526 0.121361,-0.009 0.240146,-0.0389 0.358582,-0.067 0.118436,-0.0281 0.238008,-0.0552 0.359651,-0.0597 0.121644,-0.005 0.24668,0.0147 0.352927,0.0741 0.0746,0.0417 0.137558,0.10181 0.192113,0.1676 0.05456,0.0658 0.101329,0.13758 0.149667,0.20807 0.04834,0.0705 0.09866,0.14018 0.159216,0.20049 0.06056,0.0603 0.132146,0.11127 0.213289,0.13812 0.12435,0.0411 0.261337,0.0227 0.385894,-0.0178 0.124556,-0.0405 0.241125,-0.10212 0.363257,-0.14945 0.122133,-0.0473 0.254214,-0.0805 0.383643,-0.0604 0.06471,0.01 0.127811,0.0337 0.180616,0.0724 0.0528,0.0387 0.09492,0.093 0.115162,0.15525 0.01897,0.0584 0.01842,0.1215 0.0091,0.18215 -0.0093,0.0606 -0.02696,0.11963 -0.04189,0.17914 -0.01492,0.0595 -0.02717,0.12039 -0.02519,0.18171 0.002,0.0613 0.01924,0.12367 0.05793,0.17129 0.0396,0.0487 0.09917,0.0787 0.160849,0.0905 0.06168,0.0117 0.125548,0.006 0.187081,-0.006 0.123065,-0.025 0.240901,-0.0788 0.366356,-0.0845 0.08843,-0.004 0.177201,0.0166 0.257326,0.0542 0.08013,0.0376 0.15181,0.092 0.213791,0.15517 0.123963,0.1264 0.208158,0.28579 0.284823,0.44538 0.07667,0.15959 0.148379,0.32322 0.253039,0.46602 0.10466,0.1428 0.247673,0.26546 0.419592,0.30776 0.115923,0.0285 0.237338,0.0203 0.356464,0.0126 0.119127,-0.008 0.238442,-0.0126 0.357822,-0.0126 l 0.714285,0 c 0.125704,0 0.251825,-0.003 0.375958,-0.023 0.124133,-0.0198 0.245079,-0.0554 0.36598,-0.0898 0.120901,-0.0344 0.244885,-0.0674 0.37041,-0.0607 0.06276,0.003 0.125514,0.0172 0.181529,0.0457 0.05602,0.0285 0.105079,0.0723 0.134695,0.12776 0.02861,0.0535 0.03813,0.11568 0.03639,0.17636 -0.0017,0.0607 -0.01419,0.12051 -0.02736,0.17978 -0.01316,0.0593 -0.02712,0.11862 -0.03194,0.17914 -0.0048,0.0605 -1.23e-4,0.12282 0.0229,0.179 0.02459,0.06 0.06953,0.11072 0.123836,0.14613 0.0543,0.0354 0.117628,0.0559 0.182009,0.0635 0.128762,0.0152 0.25833,-0.0199 0.379182,-0.0669 0.120852,-0.047 0.237248,-0.10617 0.361725,-0.14246 0.124476,-0.0363 0.26135,-0.0483 0.381819,-3e-4 0.07965,0.0317 0.14767,0.0879 0.204404,0.15215 0.05673,0.0643 0.103134,0.13682 0.149644,0.20883 0.04651,0.072 0.09366,0.14417 0.151635,0.20732 0.05798,0.0631 0.127778,0.11742 0.208603,0.14599 0.112863,0.0399 0.23659,0.0286 0.355795,0.0177 C 60.475001,119.00676 60.594579,119 60.714286,119 l 0.714285,0 4.285715,0 1.428571,0 c 0.119165,0 0.238307,-0.003 0.357382,-0.007 0.119075,-0.005 0.238958,-0.01 0.356904,0.007 0.189291,0.0273 0.365613,0.11129 0.532202,0.20522 0.16659,0.0939 0.327473,0.19824 0.498556,0.28371 0.171084,0.0855 0.352636,0.1511 0.540609,0.18634 0.187973,0.0352 0.380242,0.039 0.57149,0.039 l 5.714286,0 1.428571,0 c 0.238408,0 0.476756,-0.007 0.714925,-0.0173 0.238169,-0.0107 0.478498,-0.022 0.713647,0.0173 0.529101,0.0884 0.9748,0.42818 1.428571,0.71428 0.451091,0.28441 0.930388,0.52406 1.428572,0.71429"
       id="path3049"
       inkscape:path-effect="#path-effect3051"
       inkscape:original-d="m 50,54 c -8.038644,9.761211 -8.055225,8.560929 -12.142857,15.714286 -0.264143,0.46225 -0.476191,0.952381 -0.714286,1.428571 -0.238095,0.476191 -0.47619,0.952381 -0.714286,1.428572 -0.47619,0.95238 -0.95238,1.904761 -1.428571,2.857142 -0.238095,0.476191 -0.58516,0.912071 -0.714286,1.428572 -0.115493,0.461972 0.115493,0.966599 0,1.428571 -0.129125,0.516501 -0.58516,0.912071 -0.714285,1.428572 -0.115494,0.461972 0,0.952381 0,1.428571 0,0.476191 0,0.952381 0,1.428572 0,0.47619 0.115493,0.966598 0,1.428571 -0.129126,0.516501 -0.585161,0.91207 -0.714286,1.428571 -0.115493,0.461973 0,0.952381 0,1.428572 0,0.238095 0,0.47619 0,0.714286 0,0.47619 0,0.95238 0,1.428571 0,0.238095 -0.10648,0.501327 0,0.714286 0.150585,0.301169 0.563701,0.413116 0.714286,0.714285 0.106479,0.212959 0,0.476191 0,0.714286 0,0.238095 0,0.476191 0,0.714286 0,0.238095 -0.10648,0.501327 0,0.714286 0.150584,0.301169 0.563701,0.413116 0.714285,0.714285 0.10648,0.212959 -0.168358,0.545927 0,0.714286 0.168359,0.168359 0.476191,0 0.714286,0 0.238095,0.238095 0.527508,0.43412 0.714286,0.714286 0.295321,0.442981 0.418965,0.98559 0.714285,1.428571 0.186778,0.280166 0.563702,0.413117 0.714286,0.714286 0.10648,0.212959 0,0.47619 0,0.714286 0.238095,0.47619 0.418965,0.98559 0.714286,1.428571 0.186777,0.280166 0.607806,0.394847 0.714286,0.714286 0.150584,0.451754 0,0.952384 0,1.428574 0,0.23809 -0.10648,0.50132 0,0.71428 0.150584,0.30117 0.563701,0.41312 0.714285,0.71429 0.10648,0.21296 -0.106479,0.50133 0,0.71428 C 39.436299,103.58688 39.761905,103.7619 40,104 c 0.238095,0.2381 0.413116,0.5637 0.714286,0.71429 0.212959,0.10648 0.501327,-0.10648 0.714285,0 1.579325,0.78966 0.221659,0.44331 0.714286,1.42857 0.150585,0.30117 0.476191,0.47619 0.714286,0.71428 0.238095,0.2381 0.47619,0.47619 0.714286,0.71429 0.238095,0.23809 0.563701,0.41311 0.714285,0.71428 0.10648,0.21296 -0.106479,0.50133 0,0.71429 0.150585,0.30117 0.563701,0.41312 0.714286,0.71429 0.106479,0.21295 -0.168359,0.54592 0,0.71428 0.168359,0.16836 0.545927,-0.16836 0.714286,0 0.336717,0.33672 -0.336718,1.09186 0,1.42857 0.168359,0.16836 0.501327,-0.10648 0.714285,0 0.30117,0.15059 0.476191,0.47619 0.714286,0.71429 0.476191,0.47619 0.952381,0.95238 1.428572,1.42857 0.238095,0.2381 0.413116,0.5637 0.714285,0.71429 0.425918,0.21295 1.002654,-0.21296 1.428572,0 0.301169,0.15058 0.394847,0.6078 0.714285,0.71428 0.451754,0.15059 1.002654,-0.21296 1.428572,0 0.212959,0.10648 -0.168359,0.54593 0,0.71429 0.168359,0.16836 0.501327,-0.10648 0.714286,0 0.602338,0.30117 0.826232,1.1274 1.428571,1.42857 0.212959,0.10648 0.476191,0 0.714286,0 0.238095,0 0.47619,0 0.714285,0 0.476191,0 1.002654,-0.21296 1.428572,0 0.212959,0.10648 -0.212959,0.6078 0,0.71428 0.425918,0.21296 0.976817,-0.15058 1.428571,0 0.319439,0.10648 0.413117,0.56371 0.714286,0.71429 0.212959,0.10648 0.476191,0 0.714286,0 0.238095,0 0.47619,0 0.714285,0 1.428572,0 2.857143,0 4.285715,0 0.47619,0 0.952381,0 1.428571,0 0.238095,0 0.488409,-0.0753 0.714286,0 2.462295,0.82077 0.529117,0.71429 2.142857,0.71429 1.904762,0 3.809524,0 5.714286,0 0.47619,0 0.952381,0 1.428571,0 0.476191,0 0.966599,-0.1155 1.428572,0 0.516501,0.12912 0.923495,0.54592 1.428571,0.71428 1.576505,0.5255 -0.197244,-0.91153 1.428572,0.71429"
       inkscape:connector-curvature="0"
       transform="translate(0,928.36218)" />
    <path
       style="fill:none;stroke:#000000;stroke-width:1px;stroke-linecap:butt;stroke-linejoin:miter;stroke-opacity:1"
       d="m 68.571429,116.85714 c 4.144131,2.26848 8.847494,3.5062 13.571428,3.57143 0.714224,0.01 1.428565,0 2.142857,0 l 1.428572,0 7.857143,0 3.571428,0 c 0.357605,0 0.71512,0.01 1.072372,0.0257 0.357253,0.0159 0.717695,0.0328 1.070485,-0.0257 0.744516,-0.12344 1.399626,-0.58332 2.142856,-0.71428 0.70485,-0.1242 1.42944,0.0572 2.14286,0 0.98073,-0.0786 1.87982,-0.60091 2.85714,-0.71429 0.70998,-0.0824 1.42812,0 2.14286,0 l 4.28571,0 2.14286,0 c 0.35762,0 0.71514,-0.01 1.07239,-0.0259 0.35726,-0.0161 0.71777,-0.0332 1.07047,0.0259 0.74437,0.12474 1.39848,0.58955 2.14285,0.71429 0.3527,0.0591 0.71321,0.042 1.07047,0.0259 0.35725,-0.0161 0.71477,-0.0259 1.07239,-0.0259 l 3.57143,0 2.85714,0 c 0.23871,0 0.4773,0.009 0.71554,0.0242 0.23824,0.015 0.48073,0.0307 0.71303,-0.0242 0.26044,-0.0616 0.49031,-0.21066 0.71429,-0.35715 0.22398,-0.14648 0.45385,-0.29554 0.71429,-0.35714 0.2323,-0.0549 0.47479,-0.0392 0.71303,-0.0242 0.23824,0.015 0.47683,0.0242 0.71554,0.0242 l 3.57143,0"
       id="path3053"
       inkscape:path-effect="#path-effect3055"
       inkscape:original-d="m 68.571429,116.85714 c 1.878269,0.53665 9.853654,3.10671 13.571428,3.57143 0.70877,0.0886 1.428572,0 2.142857,0 0.476191,0 0.952381,0 1.428572,0 2.619047,0 5.238095,0 7.857143,0 1.190476,0 2.380952,0 3.571428,0 0.714286,0 1.43829,0.11743 2.142857,0 0.742676,-0.12378 1.400176,-0.5905 2.142856,-0.71428 0.70457,-0.11743 1.43575,0.10101 2.14286,0 0.97182,-0.13884 1.88532,-0.57546 2.85714,-0.71429 0.70711,-0.10102 1.42857,0 2.14286,0 1.42857,0 2.85714,0 4.28571,0 0.71429,0 1.42857,0 2.14286,0 0.71429,0 1.43829,-0.11743 2.14286,0 0.74268,0.12378 1.40018,0.59051 2.14285,0.71429 0.70457,0.11742 1.42858,0 2.14286,0 1.19048,0 2.38095,0 3.57143,0 0.95238,0 1.90476,0 2.85714,0 0.47619,0 0.9666,0.11549 1.42857,0 0.51651,-0.12913 0.91207,-0.58516 1.42858,-0.71429 0.46197,-0.11549 0.95238,0 1.42857,0 1.19047,0 2.38095,0 3.57143,0"
       inkscape:connector-curvature="0"
       transform="translate(0,928.36218)" />
    <path
       style="fill:none;stroke:#000000;stroke-width:1px;stroke-linecap:butt;stroke-linejoin:miter;stroke-opacity:1"
       d="m 106.42857,125.42857 c 5.90877,1.76107 12.53279,0.96619 17.85714,-2.14286 0.46089,-0.26913 0.91845,-0.55741 1.42858,-0.71428 0.58633,-0.18031 1.21032,-0.17758 1.82223,-0.22075 0.6119,-0.0432 1.2456,-0.14326 1.74919,-0.49354 0.27718,-0.1928 0.50047,-0.45183 0.71882,-0.70936 0.21836,-0.25753 0.43778,-0.51914 0.70976,-0.71921 0.3999,-0.29417 0.89111,-0.43833 1.3807,-0.52053 0.48959,-0.0822 0.98748,-0.10788 1.47644,-0.19375 0.74365,-0.1306 1.45689,-0.39881 2.14286,-0.71429 0.9675,-0.44495 1.88873,-0.98559 2.85714,-1.42857 1.65058,-0.75502 3.43422,-1.22481 5,-2.14286 0.74071,-0.4343 1.42153,-0.9628 2.14286,-1.42857 1.61348,-1.04184 3.42063,-1.76428 5,-2.85714 0.97924,-0.6776 1.86069,-1.49083 2.85714,-2.14286 0.89248,-0.584 1.86709,-1.03187 2.85714,-1.42857 0.99249,-0.39767 2.02478,-0.75748 2.85714,-1.42857 0.78736,-0.63481 1.35068,-1.51408 2.14286,-2.14286 0.83694,-0.6643 1.8747,-1.00835 2.85714,-1.42857 0.97935,-0.4189 1.91972,-0.92277 2.85715,-1.42857 1.68971,-0.91169 3.37613,-1.832778 5,-2.857146 1.62656,-1.02606 3.20616,-2.163861 5,-2.857143 1.58394,-0.612162 3.30801,-0.858457 5,-0.714285"
       id="path3057"
       inkscape:path-effect="#path-effect3059"
       inkscape:original-d="m 106.42857,125.42857 c 0.45851,-0.0458 13.40722,-0.87145 17.85714,-2.14286 0.51192,-0.14626 0.91207,-0.58516 1.42858,-0.71428 2.48943,-0.62236 0.48991,1.13462 3.57142,-0.71429 0.57747,-0.34648 0.82624,-1.1274 1.42858,-1.42857 0.87805,-0.43902 1.91322,-0.44459 2.85714,-0.71428 0.72395,-0.20685 1.45081,-0.4177 2.14286,-0.71429 0.9787,-0.41944 1.87844,-1.00913 2.85714,-1.42857 4.00677,-1.71719 0.26202,0.56456 5,-2.14286 0.74535,-0.42592 1.3975,-1.00265 2.14286,-1.42857 4.1852,-2.39154 1.51951,-0.37108 5,-2.85714 0.96873,-0.69195 1.84762,-1.51191 2.85714,-2.14286 0.90294,-0.56434 1.90476,-0.95238 2.85714,-1.42857 0.95238,-0.47619 1.99069,-0.80967 2.85714,-1.42857 0.822,-0.58714 1.32087,-1.55572 2.14286,-2.14286 0.86646,-0.6189 1.90476,-0.95238 2.85714,-1.42857 0.95239,-0.47619 1.9542,-0.86423 2.85715,-1.42857 8.16951,-5.105948 -1.25113,-0.17809 5,-2.857146 8.76584,-3.756788 -2.17352,0.729615 5,-2.857143 2.03091,-1.015455 2.67439,-0.714285 5,-0.714285"
       inkscape:connector-curvature="0"
       transform="translate(0,928.36218)" />
    <path
       style="fill:none;stroke:#000000;stroke-width:1px;stroke-linecap:butt;stroke-linejoin:miter;stroke-opacity:1"
       d="m 115.71429,123.28571 c 1.10431,1.27267 2.29875,2.46712 3.57142,3.57143 1.40468,1.21886 2.90345,2.32722 4.28572,3.57143 0.88937,0.80054 1.75612,1.67425 2.85714,2.14286 0.88741,0.37769 1.86898,0.46538 2.8328,0.49995 0.96382,0.0346 1.93654,0.0214 2.88149,0.21433 0.96292,0.19655 1.88056,0.60412 2.85714,0.71429 0.94695,0.10682 1.90418,0 2.85714,0 2.14286,0 4.28571,0 6.42857,0 2.38095,0 4.76191,0 7.14286,0 1.19063,0 2.3824,0.0617 3.57143,0 2.19811,-0.114 4.32375,-0.78482 6.42857,-1.42857 2.3771,-0.72703 4.76267,-1.42603 7.14286,-2.14286 2.88452,-0.86872 5.76402,-1.76462 8.57143,-2.85714 1.1949,-0.465 2.37586,-0.96528 3.57143,-1.42857 1.69262,-0.65589 3.42403,-1.24204 5,-2.14286 1.49112,-0.85233 2.81465,-1.97063 4.28571,-2.85714 2.92298,-1.76148 6.34208,-2.55898 9.28571,-4.28572 2.2234,-1.30425 4.1324,-3.11432 6.42858,-4.28571 2.09211,-1.06729 4.45828,-1.57886 6.42857,-2.85714 1.84381,-1.19623 3.2246,-2.99013 5,-4.28572 0.69351,-0.50609 1.4285,-0.95234 2.14285,-1.42857 l 2.14286,-1.42857"
       id="path3061"
       inkscape:path-effect="#path-effect3063"
       inkscape:original-d="m 115.71429,123.28571 c 1.54167,0.81123 2.29315,2.47577 3.57142,3.57143 1.41191,1.2102 2.83363,2.40976 4.28572,3.57143 0.9296,0.74369 1.82352,1.55222 2.85714,2.14286 2.23987,1.27992 3.02227,0.41517 5.71429,0.71428 0.97568,0.10841 1.88303,0.59253 2.85714,0.71429 0.94503,0.11813 1.90476,0 2.85714,0 2.14286,0 4.28572,0 6.42857,0 2.43282,0 4.71005,0 7.14286,0 1.19048,0 2.38686,0.11846 3.57143,0 1.95846,-0.19585 4.47627,-0.99473 6.42857,-1.42857 6.73153,-1.4959 0.43461,0.29651 7.14286,-2.14286 9.03755,-3.28638 -0.46612,0.42924 8.57143,-2.85714 1.20498,-0.43818 2.38787,-0.93543 3.57143,-1.42857 1.67379,-0.69742 3.40346,-1.28318 5,-2.14286 1.5117,-0.814 2.80266,-1.99203 4.28571,-2.85714 4.88336,-2.84863 3.98043,-1.63307 9.28571,-4.28572 12.52144,-6.26071 -4.33844,1.69596 6.42858,-4.28571 6.09607,-3.38671 1.14902,0.44257 6.42857,-2.85714 4.28006,-2.67504 1.49367,-1.36378 5,-4.28572 0.65949,-0.54957 1.42857,-0.95238 2.14285,-1.42857 0.71429,-0.47619 1.42858,-0.95238 2.14286,-1.42857"
       inkscape:connector-curvature="0"
       transform="translate(0,928.36218)" />
    <path
       style="fill:none;stroke:#000000;stroke-width:1px;stroke-linecap:butt;stroke-linejoin:miter;stroke-opacity:1"
       d="m 158.57143,127.57143 c 8.90787,1.94463 18.23499,1.94463 27.14286,0 2.65314,-0.57919 5.26674,-1.3277 7.85714,-2.14286 1.43648,-0.45204 2.86656,-0.92476 4.28571,-1.42857 2.71648,-0.96438 5.40843,-2.05054 7.85715,-3.57143 1.45869,-0.90599 2.82137,-1.96032 4.28571,-2.85714 1.1843,-0.72531 2.43358,-1.34666 3.57143,-2.14286 1.24947,-0.8743 2.34744,-1.94752 3.57143,-2.85714 1.37841,-1.02438 2.9065,-1.83385 4.28571,-2.85714 1.49386,-1.10835 2.79729,-2.45578 4.28572,-3.57143 1.37404,-1.02991 2.85693,-1.90463 4.28571,-2.85715 l 8.57143,-5.714281 c 1.2939,-0.862596 2.56675,-1.756075 3.84042,-2.648269 1.27366,-0.892194 2.57248,-1.77518 4.01672,-2.351731 1.39952,-0.5587 2.91157,-0.81008 4.28572,-1.428572 1.26714,-0.570328 2.37617,-1.43413 3.57142,-2.142857 1.83251,-1.086597 3.86176,-1.805036 5.71429,-2.857143 0.74712,-0.424309 1.46384,-0.902123 2.14286,-1.428571"
       id="path3065"
       inkscape:path-effect="#path-effect3067"
       inkscape:original-d="m 158.57143,127.57143 c 14.81575,0.52913 16.0795,1.47511 27.14286,0 3.36535,-0.44872 4.50678,-1.02607 7.85714,-2.14286 1.42857,-0.47619 2.87053,-0.91396 4.28571,-1.42857 2.56359,-0.93221 5.52735,-2.21238 7.85715,-3.57143 1.48304,-0.86511 2.8372,-1.93536 4.28571,-2.85714 1.17127,-0.74536 2.43407,-1.34671 3.57143,-2.14286 1.24896,-0.87427 2.33847,-1.96044 3.57143,-2.85714 1.38854,-1.00985 2.91217,-1.82699 4.28571,-2.85714 1.48767,-1.11575 2.79805,-2.45568 4.28572,-3.57143 1.37354,-1.03016 2.85714,-1.90476 4.28571,-2.85715 2.85714,-1.90476 5.71429,-3.80952 8.57143,-5.714281 1.16373,-0.775821 6.27198,-4.279474 7.85714,-5 1.37087,-0.623124 2.91484,-0.805448 4.28572,-1.428572 1.26388,-0.574492 2.35781,-1.468628 3.57142,-2.142857 1.8616,-1.03422 3.86529,-1.800571 5.71429,-2.857143 0.74536,-0.425918 1.42857,-0.952381 2.14286,-1.428571"
       inkscape:connector-curvature="0"
       transform="translate(0,928.36218)" />
    <path
       style="fill:none;stroke:#000000;stroke-width:1px;stroke-linecap:butt;stroke-linejoin:miter;stroke-opacity:1"
       d="m 320.71429,106.14286 c -1.91034,0.39828 -3.687,1.41352 -5,2.85714 -0.22698,0.24956 -0.44298,0.51381 -0.71429,0.71429 -0.42898,0.31699 -0.96423,0.4518 -1.42857,0.71428 -0.23417,0.13237 -0.44888,0.29646 -0.67889,0.43593 -0.23,0.13948 -0.48163,0.25589 -0.74968,0.27836 -0.23762,0.0199 -0.47839,-0.0348 -0.71429,0 -0.26462,0.039 -0.50031,0.18329 -0.72846,0.32291 -0.22816,0.13962 -0.46087,0.27175 -0.70011,0.39137 l -1.42857,0.71429 c -0.47622,0.23811 -0.94398,0.4937 -1.42857,0.71428 -1.16844,0.53186 -2.45848,0.78867 -3.57143,1.42858 -0.74468,0.42816 -1.38907,1.01666 -2.14286,1.42857 -1.1268,0.61574 -2.44643,0.80954 -3.57143,1.42857 -0.7526,0.41411 -1.39485,1.00621 -2.14285,1.42857 -0.4637,0.26183 -0.96313,0.45558 -1.42858,0.71429 -0.75074,0.41727 -1.40063,0.99633 -2.14285,1.42857 -1.10954,0.64616 -2.38331,0.94176 -3.57143,1.42857 -0.49315,0.20206 -0.97293,0.43784 -1.42857,0.71428 -0.73414,0.44541 -1.40222,0.99407 -2.14286,1.42858 -0.45942,0.26953 -0.94387,0.49342 -1.42857,0.71428 -0.96957,0.4418 -1.9468,0.87493 -2.85714,1.42857 -1.4684,0.89303 -2.74759,2.09043 -4.28572,2.85715 -1.14789,0.5722 -2.38057,0.95223 -3.57143,1.42857 l -3.57143,1.42857 C 267.88684,133.13098 266.42267,133.5041 265,134 c -1.71307,0.59713 -3.28667,1.54647 -5,2.14286 -1.85527,0.6458 -3.83281,0.86367 -5.71429,1.42857 -1.94911,0.5852 -3.77191,1.53566 -5.71428,2.14286 -1.87457,0.58601 -3.8388,0.84554 -5.71429,1.42857 -1.94328,0.6041 -3.76806,1.54828 -5.71428,2.14285 -2.10021,0.64161 -4.30598,0.86543 -6.42857,1.42858 -1.6762,0.44472 -3.29719,1.10016 -5,1.42857 -1.88592,0.36373 -3.83478,0.31873 -5.71429,0.71428 -1.69702,0.35715 -3.304,1.06659 -5,1.42857 -1.87797,0.40082 -3.80885,0.47611 -5.71429,0.71429 l -5.71428,0.71429 c -1.905,0.23813 -3.82382,0.37983 -5.71429,0.71428 -3.41602,0.60433 -6.63049,2.03203 -10,2.85714 -1.40803,0.34479 -2.84196,0.58378 -4.28571,0.71429"
       id="path3069"
       inkscape:path-effect="#path-effect3071"
       inkscape:original-d="m 320.71429,106.14286 c -1.22957,1.71174 -3.40281,1.79235 -5,2.85714 -0.28017,0.18678 -0.43412,0.52751 -0.71429,0.71429 -0.44298,0.29532 -0.95238,0.47619 -1.42857,0.71428 -0.47619,0.2381 -0.9235,0.54593 -1.42857,0.71429 -0.22588,0.0753 -0.48841,-0.0753 -0.71429,0 -0.50507,0.16836 -0.95238,0.47619 -1.42857,0.71428 -0.47619,0.2381 -0.95238,0.47619 -1.42857,0.71429 -0.47619,0.23809 -0.93425,0.51656 -1.42857,0.71428 -2.04424,0.8177 -1.8963,0.4235 -3.57143,1.42858 -0.73613,0.44167 -1.37502,1.04465 -2.14286,1.42857 -4.08847,2.04423 -0.45081,-0.4438 -3.57143,1.42857 -0.73612,0.44167 -1.40673,0.98689 -2.14285,1.42857 -0.45653,0.27392 -0.97205,0.44037 -1.42858,0.71429 -0.73612,0.44167 -1.40673,0.98689 -2.14285,1.42857 -1.67513,1.00507 -1.5272,0.61087 -3.57143,1.42857 -0.49432,0.19773 -0.97205,0.44037 -1.42857,0.71428 -0.73613,0.44168 -1.40673,0.9869 -2.14286,1.42858 -0.45653,0.27391 -0.95238,0.47619 -1.42857,0.71428 -0.95238,0.47619 -1.93264,0.90029 -2.85714,1.42857 -0.0398,0.0227 -4.26289,2.84573 -4.28572,2.85715 -1.14682,0.5734 -2.38095,0.95238 -3.57143,1.42857 -1.19047,0.47619 -2.38095,0.95238 -3.57143,1.42857 -1.42857,0.47619 -2.88023,0.888 -4.28571,1.42857 -1.69242,0.65093 -3.27977,1.56945 -5,2.14286 -1.86263,0.62087 -3.84028,0.84294 -5.71429,1.42857 -1.94168,0.60678 -3.7726,1.53608 -5.71428,2.14286 -1.87401,0.58562 -3.84028,0.84294 -5.71429,1.42857 -1.94168,0.60677 -3.76266,1.56885 -5.71428,2.14285 -2.10593,0.6194 -4.29899,0.89618 -6.42857,1.42858 -1.68161,0.4204 -3.30031,1.08863 -5,1.42857 -1.88231,0.37646 -3.83198,0.33782 -5.71429,0.71428 -1.6997,0.33994 -3.3003,1.08863 -5,1.42857 -1.88231,0.37647 -3.80952,0.47619 -5.71429,0.71429 -1.90476,0.2381 -3.80952,0.47619 -5.71428,0.71429 -1.90476,0.23809 -3.82758,0.36052 -5.71429,0.71428 -10.68861,2.00412 -1.15697,0.64639 -10,2.85714 C 186.45211,153.63697 185,153.7619 183.57143,154"
       inkscape:connector-curvature="0"
       transform="translate(0,928.36218)" />
    <path
       style="fill:none;stroke:#000000;stroke-width:1px;stroke-linecap:butt;stroke-linejoin:miter;stroke-opacity:1"
       d="m 275,112.57143 c -1.85064,0.56664 -3.57226,1.55042 -5,2.85714 -0.99388,0.90963 -1.8436,1.96946 -2.85714,2.85714 -1.14778,1.00525 -2.49263,1.77821 -3.57143,2.85715 -0.4766,0.47666 -0.89928,1.0112 -1.42857,1.42857 -0.83871,0.66136 -1.88563,0.98473 -2.85715,1.42857 -0.78537,0.3588 -1.54074,0.80969 -2.14285,1.42857 -0.47137,0.4845 -0.853,1.07411 -1.42857,1.42857 -0.32162,0.19807 -0.68755,0.31149 -1.05325,0.406 -0.3657,0.0945 -0.73712,0.17257 -1.08961,0.30829 -0.65083,0.25059 -1.21027,0.68648 -1.76735,1.10604 -0.55709,0.41957 -1.13625,0.83586 -1.80408,1.03682 -0.36506,0.10985 -0.7467,0.15206 -1.11844,0.23658 -0.37174,0.0845 -0.7451,0.21825 -1.02442,0.4777 -0.25425,0.23616 -0.41017,0.55648 -0.60891,0.84094 -0.0994,0.14223 -0.21136,0.27751 -0.34784,0.38464 -0.13648,0.10713 -0.29922,0.18529 -0.47182,0.20299 -0.119,0.0122 -0.23879,-0.004 -0.35788,-0.0156 -0.11909,-0.0113 -0.24133,-0.0171 -0.3564,0.0156 -0.16503,0.0469 -0.29887,0.16842 -0.40657,0.30196 -0.10769,0.13355 -0.19567,0.28242 -0.30772,0.41233 -0.17622,0.20431 -0.40727,0.35569 -0.65208,0.46912 -0.2448,0.11342 -0.50446,0.19087 -0.76361,0.26593 -0.25915,0.0751 -0.5197,0.14843 -0.76785,0.25432 -0.24816,0.10589 -0.48523,0.24604 -0.6736,0.4392 -0.11859,0.1216 -0.2159,0.26201 -0.32519,0.39203 -0.10929,0.13002 -0.23432,0.25231 -0.3891,0.32226 -0.10973,0.0496 -0.23069,0.0709 -0.35104,0.0747 -0.12035,0.004 -0.24059,-0.01 -0.35975,-0.0269 -0.23832,-0.0347 -0.47991,-0.0854 -0.71778,-0.0478 -0.26412,0.0417 -0.49961,0.18511 -0.72808,0.32406 -0.22846,0.13895 -0.46132,0.27063 -0.70049,0.39022 l -4.28572,2.14286 c -0.57401,0.287 -1.15832,0.55473 -1.76202,0.77246 -0.6037,0.21772 -1.22288,0.39563 -1.8094,0.65611 -0.48662,0.21611 -0.95234,0.47617 -1.42858,0.71429 L 225,141.85714 c -0.23838,0.11919 -0.47358,0.24458 -0.70668,0.37378 -0.23311,0.1292 -0.46781,0.26005 -0.72189,0.34051 -0.45961,0.14555 -0.95964,0.11198 -1.42857,0 -0.11917,-0.0285 -0.23794,-0.062 -0.36008,-0.0715 -0.12215,-0.01 -0.25019,0.007 -0.35421,0.0715 -0.0604,0.0376 -0.11094,0.0907 -0.14546,0.15287 -0.0345,0.0622 -0.0529,0.13317 -0.0529,0.20427 0,0.0711 0.0184,0.14212 0.0529,0.20427 0.0345,0.0622 0.0851,0.1153 0.14546,0.15287 -0.37699,0.39046 -0.89001,0.64697 -1.42857,0.71429 -0.23676,0.0296 -0.47687,0.0237 -0.71429,0 -0.23931,-0.0239 -0.47681,-0.0658 -0.71684,-0.0808 -0.24003,-0.0149 -0.4859,-0.002 -0.71173,0.0808 -0.32635,0.1195 -0.59478,0.38794 -0.71428,0.71429 -0.62584,0.43723 -1.37986,0.68856 -2.14286,0.71428 -0.23797,0.008 -0.47618,0 -0.71429,0 l -2.14285,0 c -0.23861,0 -0.47711,-0.008 -0.71533,-0.022 -0.23821,-0.0136 -0.47994,-0.028 -0.71324,0.022 -0.26139,0.0561 -0.49769,0.19258 -0.72444,0.33418 -0.22675,0.1416 -0.45184,0.29172 -0.70414,0.38011 -0.45537,0.15954 -0.95739,0.10391 -1.42857,0 -0.1189,-0.0262 -0.23782,-0.0555 -0.35932,-0.0635 -0.12149,-0.008 -0.24736,0.007 -0.35496,0.0635 -0.0756,0.04 -0.13938,0.0995 -0.19428,0.16502 -0.0549,0.0656 -0.10156,0.13749 -0.14955,0.20826 -0.048,0.0708 -0.0977,0.14091 -0.15788,0.2017 -0.0601,0.0608 -0.13146,0.11228 -0.21258,0.1393 -0.1135,0.0378 -0.23675,0.0271 -0.35593,0.0168 -0.11919,-0.0103 -0.23871,-0.0168 -0.35835,-0.0168 l -1.42858,0 c -0.12292,0 -0.24508,-0.0166 -0.36513,-0.043 -0.06,-0.0132 -0.12094,-0.0259 -0.18236,-0.0237 -0.0307,0.001 -0.0614,0.006 -0.0903,0.0168 -0.0288,0.0107 -0.0557,0.0273 -0.0765,0.0499 -0.0214,0.0231 -0.036,0.052 -0.0441,0.0824 -0.008,0.0304 -0.01,0.0623 -0.007,0.0937 0.006,0.0627 0.0284,0.12236 0.051,0.18108 0.0226,0.0587 0.0454,0.11841 0.051,0.18109 0.003,0.0313 0.001,0.0632 -0.007,0.0937 -0.008,0.0304 -0.0227,0.0593 -0.0441,0.0824 -0.0209,0.0226 -0.0477,0.0392 -0.0765,0.0499 -0.0288,0.0107 -0.0595,0.0157 -0.0902,0.0168 -0.0614,0.002 -0.12233,-0.0105 -0.18236,-0.0237 -0.12006,-0.0264 -0.24221,-0.043 -0.36514,-0.043 l -3.57143,0 c -0.12292,0 -0.24508,-0.0166 -0.36513,-0.043 -0.06,-0.0132 -0.12094,-0.0259 -0.18236,-0.0237 -0.0307,0.001 -0.0615,0.006 -0.0903,0.0168 -0.0288,0.0107 -0.0557,0.0273 -0.0765,0.0499 -0.0214,0.0231 -0.036,0.052 -0.0441,0.0824 -0.008,0.0304 -0.01,0.0623 -0.007,0.0937 0.006,0.0627 0.0284,0.12235 0.051,0.18108 0.0226,0.0587 0.0454,0.1184 0.051,0.18108 0.003,0.0313 0.001,0.0633 -0.007,0.0937 -0.008,0.0304 -0.0227,0.0593 -0.0441,0.0824 -0.0209,0.0226 -0.0477,0.0392 -0.0765,0.0499 -0.0288,0.0107 -0.0595,0.0157 -0.0902,0.0168 -0.0614,0.002 -0.12233,-0.0105 -0.18236,-0.0237 -0.12006,-0.0264 -0.24221,-0.043 -0.36514,-0.043 l -1.42857,0 c -0.4953,0 -0.9945,0.0491 -1.46127,0.21473 -0.46678,0.16564 -0.90637,0.424 -1.39587,0.49956 -0.236,0.0364 -0.47693,0.0261 -0.71429,0 -0.23915,-0.0263 -0.47669,-0.0686 -0.71684,-0.0832 -0.24016,-0.0145 -0.48607,-2.7e-4 -0.71173,0.0832 -0.32582,0.12048 -0.5938,0.38847 -0.71428,0.71429"
       id="path3073"
       inkscape:path-effect="#path-effect3075"
       inkscape:original-d="m 275,112.57143 c -1.62136,0.81068 -3.58655,1.64561 -5,2.85714 -1.02262,0.87653 -1.85048,1.96233 -2.85714,2.85714 -1.13947,1.01286 -2.4139,1.86498 -3.57143,2.85715 -0.51131,0.43826 -0.88982,1.02451 -1.42857,1.42857 -0.0187,0.014 -2.81086,1.4008 -2.85715,1.42857 -0.73612,0.44168 -1.4725,0.89229 -2.14285,1.42857 -0.52587,0.42069 -0.85111,1.08209 -1.42857,1.42857 -0.64563,0.38738 -1.46943,0.37757 -2.14286,0.71429 -3.35397,1.67698 -0.89865,1.07374 -3.57143,2.14286 -0.69907,0.27962 -1.49723,0.32691 -2.14286,0.71428 -0.57746,0.34648 -0.86824,1.05502 -1.42857,1.42857 -0.19811,0.13207 -0.50133,-0.10648 -0.71428,0 -0.30117,0.15059 -0.43412,0.52751 -0.71429,0.71429 -0.88596,0.59064 -1.97118,0.83793 -2.85714,1.42857 -0.28017,0.18678 -0.39485,0.60781 -0.71429,0.71429 -0.45175,0.15058 -0.9666,-0.1155 -1.42857,0 -0.5165,0.12912 -0.95238,0.47619 -1.42857,0.71428 -1.42857,0.71429 -2.85714,1.42857 -4.28572,2.14286 -3.35025,1.67513 0.8418,-0.33672 -3.57142,1.42857 -0.49432,0.19773 -0.95238,0.47619 -1.42858,0.71429 -1.42857,0.71428 -2.85714,1.42857 -4.28571,2.14285 -0.47619,0.2381 -0.91207,0.58516 -1.42857,0.71429 -0.46197,0.11549 -0.95238,0 -1.42857,0 -0.2381,0 -0.54593,-0.16836 -0.71429,0 -0.16836,0.16836 0,0.47619 0,0.71428 -0.47619,0.2381 -0.92349,0.54593 -1.42857,0.71429 -0.22588,0.0753 -0.47619,0 -0.71429,0 -0.47619,0 -0.97681,-0.15058 -1.42857,0 -0.31944,0.10648 -0.39484,0.60781 -0.71428,0.71429 -3.25163,0 -0.0409,-0.33672 -2.14286,0.71428 -0.21296,0.10648 -0.47619,0 -0.71429,0 -0.71428,0 -1.42857,0 -2.14285,0 -0.47619,0 -0.9666,-0.11549 -1.42857,0 -0.51651,0.12913 -0.91207,0.58516 -1.42858,0.71429 -0.46197,0.11549 -0.95238,0 -1.42857,0 -0.23809,0 -0.50132,-0.10648 -0.71428,0 -0.30117,0.15058 -0.41312,0.5637 -0.71429,0.71428 -0.21296,0.10648 -0.47619,0 -0.71428,0 -0.48175,0 -0.94683,0 -1.42858,0 -0.23809,0 -0.54592,-0.16836 -0.71428,0 -0.16836,0.16836 0.16836,0.54593 0,0.71429 -0.16836,0.16836 -0.47619,0 -0.71429,0 -1.19047,0 -2.38095,0 -3.57143,0 -0.23809,0 -0.54592,-0.16836 -0.71428,0 -0.16836,0.16836 0.16836,0.54593 0,0.71428 -0.16836,0.16836 -0.47619,0 -0.71429,0 -0.47574,0 -0.95282,0 -1.42857,0 -2.79032,0 -0.0754,-0.21295 -2.85714,0.71429 -0.22588,0.0753 -0.47619,0 -0.71429,0 -0.47619,0 -0.97681,-0.15058 -1.42857,0 -0.31944,0.10648 -0.47619,0.47619 -0.71428,0.71429"
       inkscape:connector-curvature="0"
       transform="translate(0,928.36218)" />
    <path
       style="fill:none;stroke:#000000;stroke-width:1px;stroke-linecap:butt;stroke-linejoin:miter;stroke-opacity:1"
       d="M 237.14286,106.85714 230,114.71429 l -3.57143,5 c -1.46217,0.52279 -2.74043,1.5454 -3.57143,2.85714 -0.46115,0.72793 -0.7992,1.55427 -1.42857,2.14286 -0.3139,0.29356 -0.68559,0.51696 -1.05341,0.73927 -0.36782,0.22232 -0.73185,0.4509 -1.08945,0.6893 l -2.14285,1.42857 c -0.49315,0.20194 -0.97113,0.44092 -1.42857,0.71428 -0.73703,0.44044 -1.41811,0.96821 -2.14286,1.42858 -0.72565,0.46094 -1.49994,0.85788 -2.14286,1.42857 -0.50389,0.44729 -0.91559,0.99173 -1.42857,1.42857 -0.69448,0.5914 -1.54821,0.96328 -2.41065,1.26032 -0.86245,0.29704 -1.74875,0.52838 -2.58935,0.88254 -0.98155,0.41355 -1.88706,0.9888 -2.85714,1.42857 -0.9005,0.40822 -1.86854,0.70012 -2.85715,0.71428 -0.23809,0.003 -0.47634,-0.009 -0.71428,0 -1.07704,0.0419 -2.08764,0.52924 -2.99774,1.10673 -0.91009,0.57749 -1.75892,1.25573 -2.71655,1.75042 -1.13985,0.58883 -2.4019,0.90114 -3.57143,1.42857 -1.07757,0.48596 -2.06445,1.14882 -3.09989,1.71908 -1.03543,0.57025 -2.14946,1.05585 -3.32868,1.13806 -0.23771,0.0166 -0.47657,0.0166 -0.71428,0 -0.73734,0.15954 -1.45726,0.39952 -2.14286,0.71429 -0.96814,0.44449 -1.86652,1.03673 -2.85714,1.42857 -0.70024,0.27698 -1.42847,0.47615 -2.14286,0.71428 -0.71429,0.2381 -1.42857,0.47619 -2.14286,0.71429 -0.71428,0.23809 -1.42857,0.47619 -2.14285,0.71428 -0.35789,0.1193 -0.71149,0.25099 -1.06208,0.39029 -0.35059,0.1393 -0.70593,0.2815 -1.08078,0.324 -0.47384,0.0537 -0.95548,-0.0599 -1.42857,0 -0.37485,0.0475 -0.72668,0.20163 -1.0721,0.35478 -0.34541,0.15315 -0.69634,0.30875 -1.07076,0.35951 -0.47228,0.064 -0.95197,0 -1.42857,0 l -2.14286,0"
       id="path3077"
       inkscape:path-effect="#path-effect3079"
       inkscape:original-d="m 237.14286,106.85714 c -2.38095,2.61905 -4.76191,5.2381 -7.14286,7.85715 -1.19048,1.66666 -2.2107,3.46917 -3.57143,5 -1.59109,1.06073 -2.40823,1.40314 -3.57143,2.85714 -0.53628,0.67035 -0.82154,1.53583 -1.42857,2.14286 -0.60702,0.60702 -1.42857,0.95238 -2.14286,1.42857 -0.71428,0.47619 -1.42857,0.95238 -2.14285,1.42857 -0.47619,0.23809 -0.97205,0.44037 -1.42857,0.71428 -0.73613,0.44168 -1.42858,0.95239 -2.14286,1.42858 -0.71429,0.47619 -1.47251,0.89229 -2.14286,1.42857 -0.52586,0.42069 -0.86824,1.05501 -1.42857,1.42857 -2.84278,1.89519 -2.33333,1 -5,2.14286 -0.9787,0.41944 -1.86014,1.05469 -2.85714,1.42857 -0.91919,0.34469 -1.89452,0.52176 -2.85715,0.71428 -0.23347,0.0467 -0.49322,-0.0884 -0.71428,0 -0.0129,0.005 -5.69102,2.8468 -5.71429,2.85715 -1.17167,0.52074 -2.39975,0.90782 -3.57143,1.42857 -3.73378,1.65946 -2.19384,1.44556 -6.42857,2.85714 -0.22587,0.0753 -0.47619,0 -0.71428,0 -0.71429,0.2381 -1.45081,0.41769 -2.14286,0.71429 -0.9787,0.41944 -1.87844,1.00912 -2.85714,1.42857 -0.69205,0.29659 -1.42857,0.47619 -2.14286,0.71428 -0.71429,0.2381 -1.42857,0.47619 -2.14286,0.71429 -0.71428,0.23809 -1.42857,0.47619 -2.14285,0.71428 -0.71429,0.2381 -1.41242,0.53168 -2.14286,0.71429 -0.44776,0.11194 -0.98081,-0.11194 -1.42857,0 -0.73045,0.18261 -1.40456,0.56663 -2.14286,0.71429 -0.46694,0.0934 -0.95238,0 -1.42857,0 -0.71429,0 -1.42857,0 -2.14286,0"
       inkscape:connector-curvature="0"
       transform="translate(0,928.36218)" />
  </g>
  <g
     inkscape:groupmode="layer"
     id="layer2"
     inkscape:label="Layer">
    <path
       style="fill:#ff6600;fill-opacity:1;stroke:#ff6600;stroke-opacity:1;filter:url(#filter3886)"
       d="M 135.27484,20.538806 C 124.2358,16.35912 112.2226,14.777388 100.47789,15.957225 c -7.492473,0.752671 -15.088328,2.719188 -21.081941,7.277727 -4.414861,3.357794 -7.784508,8.031168 -9.748858,13.218374 -1.96435,5.187207 -2.538468,10.870161 -1.835265,16.372096 1.406406,11.00387 7.894299,20.997421 16.563648,27.918802 8.66935,6.921381 19.374926,10.95963 30.285926,12.962947 10.911,2.003317 22.0837,2.064416 33.17111,1.700379 11.06647,-0.36335 22.36984,-1.201732 32.54386,-5.570716 8.06588,-3.463694 15.17997,-9.114674 20.37886,-16.187669 5.19888,-7.072995 8.46893,-15.549466 9.36732,-24.281508 2.47123,15.066436 -2.08806,31.138337 -12.10261,42.6628 -7.77443,8.946603 -18.68311,15.114353 -30.35714,17.163893 15.1055,1.06571 30.44981,-1.41454 44.45033,-7.18492 16.98604,-7.00088 31.93572,-18.86481 42.61204,-33.816532 -6.28769,15.753744 -17.66919,29.427728 -32.02031,38.469902 -4.12843,2.60119 -8.4927,4.82792 -13.02175,6.64394 17.14274,4.60342 35.53438,4.46017 52.60333,-0.40971 15.41881,-4.39908 29.72895,-12.62945 41.28499,-23.744743 -7.99745,9.834765 -17.94352,18.078573 -29.09137,24.112403 -5.84943,3.16603 -12.0254,5.72834 -18.39812,7.63306 9.87635,1.83621 19.92473,2.74601 29.97027,2.71357 27.27732,-0.0881 54.50191,-7.24839 78.29298,-20.59174 -12.84432,7.9158 -26.70876,14.17427 -41.14141,18.57143 -14.86528,4.52897 -30.25668,7.07322 -45.6425,9.25598 -93.30491,13.23699 -188.432323,13.56376 -281.8259678,0.9681 L -4.9789738,-3.8991959 61.145023,-2.1450211 c 13.207276,0.3503701 26.527516,1.01754 39.273277,4.4961136 12.74576,3.4785736 24.78488,9.6368855 34.85654,18.1877135"
       id="path3086"
       inkscape:path-effect="#path-effect3088"
       inkscape:original-d="M 135.27484,20.538806 C 108.13198,-6.6040507 116.53636,7.0323137 100.47789,15.957225 83.71864,25.271617 81.538806,-11.765048 79.395949,23.234952 c -2.142857,35 52.028371,60.496688 68.436561,72.172598 25.13314,17.88451 2.61663,1.905354 32.54386,-5.570716 22.68007,-5.66567 29.74618,-40.469177 29.74618,-40.469177 0,0 -3.29444,32.29357 -12.10261,42.6628 -9.10267,10.715943 -30.35714,17.163893 -30.35714,17.163893 0,0 23.11951,7.31884 44.45033,-7.18492 14.89761,-10.129543 42.61204,-33.816532 42.61204,-33.816532 0,0 -18.99823,24.593414 -32.02031,38.469902 -10.98532,11.70609 -13.02175,6.64394 -13.02175,6.64394 0,0 28.30685,13.30256 52.60333,-0.40971 9.91177,-5.59393 41.28499,-23.744743 41.28499,-23.744743 0,0 -21.1355,16.174643 -29.09137,24.112403 -6.27044,6.25617 -18.39812,7.63306 -18.39812,7.63306 0,0 15.66082,10.24291 29.97027,2.71357 8.20674,-4.31822 78.29298,-20.59174 78.29298,-20.59174 0,0 -35.80459,13.26033 -41.14141,18.57143 -11.04734,10.9941 -45.6425,9.25598 -45.6425,9.25598 -269.2857178,0 -281.8259678,0.9681 -281.8259678,0.9681 L -4.9789738,-3.8991959 61.145023,-2.1450211 C 266.41711,3.3005531 124.70704,-1.1646052 135.27484,20.538806 z"
       inkscape:connector-curvature="0"
       sodipodi:nodetypes="csssscscscscscscscscccsc" />
  </g>
</svg>
